PathFileType	4	(X/Y/Z)	/Users/niels/Desktop/University/Third Semester/Perception and Action/Exam/Gymnastics Motion Tracking/Code for Gym Tracking/Analyzed Data/Webcam_Backflip/id7_2_trajectory_Sports2D/id7_2_trajectory_Sports2D_px_person00.trc
DataRate	CameraRate	NumFrames	NumMarkers	Units	OrigDataRate	OrigDataStartFrame	OrigNumFrames
29.810126582278482	29.810126582278482	11	22	m	29.810126582278482	59	158
Frame#	Time	Hip			RHip			RKnee			RAnkle			RBigToe			RSmallToe			RHeel			LHip			LKnee			LAnkle			LBigToe			LSmallToe			LHeel			Neck			Head			Nose			RShoulder			RElbow			RWrist			LShoulder			LElbow			LWrist		
		X1	Y1	Z1	X2	Y2	Z2	X3	Y3	Z3	X4	Y4	Z4	X5	Y5	Z5	X6	Y6	Z6	X7	Y7	Z7	X8	Y8	Z8	X9	Y9	Z9	X10	Y10	Z10	X11	Y11	Z11	X12	Y12	Z12	X13	Y13	Z13	X14	Y14	Z14	X15	Y15	Z15	X16	Y16	Z16	X17	Y17	Z17	X18	Y18	Z18	X19	Y19	Z19	X20	Y20	Z20	X21	Y21	Z21	X22	Y22	Z22
59	1.9791932059447983	0.9271119805017938	-0.45779474566577844	0.0	0.9038014156835313	-0.45440826158783343	0.0	0.9026209673901742	-0.5689131830739593	0.0	0.8764555822473279	-0.6777049016134208	0.0	0.8958866236266072	-0.7165365612701603	0.0	0.8791708741754911	-0.7143737054161098	0.0	0.8689162298479065	-0.6873425141688435	0.0	0.9480715442141552	-0.4591595972862444	0.0	0.9438722347211995	-0.5734593821997517	0.0	0.9242166938774611	-0.6729747880555705	0.0	0.9442531947226332	-0.706852065221116	0.0	0.9503225533244369	-0.7005771330058593	0.0	0.9143764902379278	-0.683639787179924	0.0	0.9321275112431103	-0.31057698352866225	0.0	0.9354523817795874	-0.23920207842375021	0.0	0.9413008588793097	-0.2777260221792477	0.0	0.8962529045344672	-0.32607999282036526	0.0	0.8504706364151169	-0.370943609984355	0.0	0.8102840726019351	-0.4132952131460699	0.0	0.9644883071593463	-0.33229685882801413	0.0	0.976656104725005	-0.3904269178060087	0.0	0.9910704072077816	-0.44436186171696646	0.0
60	2.0127388535031847	0.9327880853710702	-0.4512899867205447	0.0	0.9090573134507882	-0.44846748154446836	0.0	0.908414216598518	-0.5656595822967668	0.0	0.8893565543352671	-0.6769840028318	0.0	0.9097705658551632	-0.7142697350890407	0.0	0.8922707884383545	-0.7126468295716036	0.0	0.8829058713484093	-0.6879449814209465	0.0	0.9542727181878871	-0.4529114067678269	0.0	0.9512106375654512	-0.5687496570959418	0.0	0.9394023813619345	-0.6724331204773379	0.0	0.9588303472613748	-0.7058157488019954	0.0	0.9660831641655857	-0.6994841598927397	0.0	0.9303329547479356	-0.6842833203649205	0.0	0.9373386692578022	-0.3037082230714968	0.0	0.9420380933232706	-0.2317601193597951	0.0	0.9467271726266385	-0.270948075181548	0.0	0.9003854132842108	-0.31967591970635056	0.0	0.8557813209080685	-0.37066330614478527	0.0	0.8154773018307022	-0.42010595201719453	0.0	0.9706291016091529	-0.32570388933950506	0.0	0.9765318013184935	-0.38956817758647905	0.0	0.9850592469625927	-0.448365837259998	0.0
61	2.046284501061571	0.9384590378698651	-0.4497031234930496	0.0	0.9143509487272663	-0.4475862719206006	0.0	0.9149833040316465	-0.5667371841282087	0.0	0.9033486104195416	-0.680114767393565	0.0	0.9245590331828006	-0.7156153646028761	0.0	0.9062498342942643	-0.714622621334417	0.0	0.8981407603407046	-0.6926065451584222	0.0	0.9604892664357384	-0.4513322510657077	0.0	0.9593374737447531	-0.5681433314106688	0.0	0.9551452483095347	-0.6757927635846435	0.0	0.9743232667126429	-0.708533710981156	0.0	0.9825319423883146	-0.7023555344150133	0.0	0.9468087844255068	-0.6887974256549569	0.0	0.9430011905296062	-0.3015423701509835	0.0	0.9486422746775028	-0.22903598198306782	0.0	0.9521763776130372	-0.26898726254938055	0.0	0.904897725571517	-0.3176825976915707	0.0	0.86289569575321	-0.37365666087297467	0.0	0.8235963807972437	-0.4281537394983334	0.0	0.9772001539095746	-0.3235552468409439	0.0	0.9781156718422	-0.3919656545143854	0.0	0.9818788985244197	-0.4541339649679097	0.0
62	2.0798301486199575	0.9442561367593743	-0.4535811157096336	0.0	0.9197323389311753	-0.4522156259758898	0.0	0.9226684767548432	-0.5724394479875712	0.0	0.9182567140940652	-0.6875530584444578	0.0	0.9398200285193098	-0.7211676444647046	0.0	0.9208103746042358	-0.7207854124428538	0.0	0.9144225424739486	-0.7015794470117757	0.0	0.9669212429265606	-0.4549113192241677	0.0	0.9683521675633101	-0.5721350577111819	0.0	0.9712070251858421	-0.6834303106615922	0.0	0.9901459901079894	-0.715419222725568	0.0	0.9991187000961359	-0.7095937877099749	0.0	0.9635334718540108	-0.6974661227010057	0.0	0.9491200456807783	-0.30437609748857963	0.0	0.9550481123469925	-0.23140054800484097	0.0	0.9576114048104188	-0.2720138111304479	0.0	0.9097703339668018	-0.3205573445673731	0.0	0.8716772345372578	-0.3803961337616892	0.0	0.8343042001766429	-0.43831454305712714	0.0	0.9841937969682825	-0.3262273928375796	0.0	0.9816935642251049	-0.3978909211589705	0.0	0.9821273073525152	-0.46247510123192775	0.0
63	2.1133757961783437	0.9502656570927632	-0.46323618808270783	0.0	0.9252697711733603	-0.46262379669062964	0.0	0.9315576149437387	-0.5830568757051583	0.0	0.9335487609323485	-0.699566390975563	0.0	0.954757185743992	-0.7313645384798696	0.0	0.9353645593875667	-0.7314282571264483	0.0	0.9311629716186196	-0.7148751145643775	0.0	0.9736313968739235	-0.46399882807697534	0.0	0.9780792416607959	-0.5811636438892555	0.0	0.9871099724466131	-0.6956077700349327	0.0	1.0052867790905569	-0.7267240718087187	0.0	1.014965768425198	-0.7213753983377534	0.0	0.9800531127089449	-0.7104497594445671	0.0	0.9555002740014992	-0.3124274551370131	0.0	0.961092682095915	-0.239121243006976	0.0	0.9629932657459919	-0.28016313809657667	0.0	0.914869523202722	-0.3287380151081651	0.0	0.8818016963909614	-0.39138933835917716	0.0	0.8471257227905099	-0.4515735848643575	0.0	0.9914656428459386	-0.3340052024761581	0.0	0.9872868735363478	-0.4076041505786134	0.0	0.9860324472246956	-0.47392835727321286	0.0
64	2.1469214437367303	0.9564631059122833	-0.47845270158585596	0.0	0.9309680043431374	-0.4786144931926465	0.0	0.9413516776543913	-0.598557214221978	0.0	0.9482302460224376	-0.7159182376621656	0.0	0.9681715559858144	-0.7460935122350184	0.0	0.9488559724879524	-0.7463047409638296	0.0	0.9472136962530497	-0.7319771623501873	0.0	0.9805126428644573	-0.47856375636260573	0.0	0.9880077868631532	-0.5953874694026949	0.0	1.0019194304707222	-0.7121358486787883	0.0	1.0183905925471437	-0.7422740226209158	0.0	1.0288816756197412	-0.7373610780559311	0.0	0.9954756521748397	-0.727392596630084	0.0	0.9617596247267668	-0.3256094854659675	0.0	0.9665595267285965	-0.2520999647459964	0.0	0.9681420855856191	-0.2933617634509207	0.0	0.9199472008178439	-0.34229752913546213	0.0	0.8926705956862659	-0.40686509102959123	0.0	0.8613045918034801	-0.46858870158608656	0.0	0.9986703061714538	-0.34686159326048066	0.0	0.9946111223167053	-0.4212199624238277	0.0	0.9934009686806878	-0.4886192594855218	0.0
65	2.180467091295117	0.9627299788414937	-0.4984553210197781	0.0	0.9367758496829811	-0.49943142644178123	0.0	0.9514325439794422	-0.6184242298605221	0.0	0.9610904861496823	-0.7359461947189148	0.0	0.9788426904941533	-0.7645810972663563	0.0	0.96007101611197	-0.7645942051934637	0.0	0.9611021479755549	-0.7520035404313659	0.0	0.9873854521199713	-0.49808471715403807	0.0	0.9974450857286136	-0.614572862442452	0.0	1.0144322247686024	-0.7323473056453709	0.0	1.028190246539443	-0.7613812200920473	0.0	1.0396711223357724	-0.7566814636576246	0.0	1.0086535097813647	-0.7474475625890643	0.0	0.9674541372754524	-0.3434435579104106	0.0	0.9711708181042945	-0.2698079648828853	0.0	0.9727543833869706	-0.31120281215186046	0.0	0.9247120681900683	-0.3607855360705325	0.0	0.9034993954255363	-0.4266589252985555	0.0	0.875874127418161	-0.4895496486004834	0.0	1.0053704413473936	-0.3643609437645122	0.0	1.003120182519488	-0.43857882971081197	0.0	1.0037398905581605	-0.5063602215741843	0.0
66	2.214012738853503	0.9689387482364102	-0.5221583545687531	0.0	0.9426450943815052	-0.5239941738586718	0.0	0.9611439034786201	-0.6417490302977027	0.0	0.9712289892973052	-0.7587889665025274	0.0	0.986119483304632	-0.7855949720981651	0.0	0.9682686236066111	-0.7851889853496522	0.0	0.9716613018020124	-0.7740532016477917	0.0	0.9941293431060444	-0.5216768378119119	0.0	1.005800051950757	-0.6380281902957177	0.0	1.0237176673385895	-0.7552928381784897	0.0	1.0340329505289692	-0.7829299270809379	0.0	1.0466192590822319	-0.7781582450985749	0.0	1.018701085778564	-0.7695943789297971	0.0	0.9722881049380503	-0.36515275762164384	0.0	0.9747435864763986	-0.2914522709464831	0.0	0.9765999106408957	-0.33297501781103417	0.0	0.9289647673635071	-0.3833783357437162	0.0	0.9135826752515245	-0.45037772838399254	0.0	0.889943805146215	-0.5143822193208282	0.0	1.011295324353631	-0.38575298831792537	0.0	1.0122530364534397	-0.45938163883168504	0.0	1.0164731957542652	-0.5270298936549948	0.0
67	2.2475583864118898	0.974997615686159	-0.5482910416037471	0.0	0.9485530628087717	-0.5510400657705662	0.0	0.9699742359873688	-0.6673069220862926	0.0	0.9783799153534228	-0.7833197041498681	0.0	0.9901680689402964	-0.8076731073035058	0.0	0.9735139521274151	-0.8069119220987018	0.0	0.978499927781127	-0.797183378739577	0.0	1.0006800411027033	-0.5481590693971174	0.0	1.0127258660022698	-0.6644589407043072	0.0	1.029502445234158	-0.7797556290392186	0.0	1.0361348549236127	-0.8055029542802973	0.0	1.049775927388448	-0.8004504561315093	0.0	1.0253463895655532	-0.7927286050911546	0.0	0.9762403808882857	-0.38965300461927926	0.0	0.9773012074493674	-0.31598786257039657	0.0	0.9796375839952919	-0.35761976677621726	0.0	0.932671214210177	-0.40897817471319126	0.0	0.9224613384781487	-0.4773735629344229	0.0	0.9028399860770576	-0.5427199636499979	0.0	1.0164581990849684	-0.4099908588970551	0.0	1.0216320012474418	-0.483177374734184	0.0	1.0309612007012585	-0.5505686996004472	0.0
68	2.281104033970276	0.9808218682754283	-0.5752862352345873	0.0	0.9544379115130956	-0.5789657370893629	0.0	0.9775541173819279	-0.6935438162287247	0.0	0.9828456969505108	-0.8079598045633374	0.0	0.9917274202647705	-0.829224824481714	0.0	0.9764685438630255	-0.8284368704491829	0.0	0.9820327915549193	-0.8201091972497901	0.0	1.0069410976741398	-0.5759013061008559	0.0	1.018121191556896	-0.6919534609274719	0.0	1.032224731682771	-0.8041813333878532	0.0	1.0354707413329967	-0.8275449877610597	0.0	1.0499216669957563	-0.8221188527383492	0.0	1.0289943462935773	-0.8155379338096831	0.0	0.9795059544052946	-0.41541049798760016	0.0	0.9790371092914255	-0.3419026051391331	0.0	0.9819527872254006	-0.383593753278252	0.0	0.9359267642947741	-0.43608197747647526	0.0	0.9299141871948701	-0.5063862860654953	0.0	0.9140283677345605	-0.5734463127117602	0.0	1.021037125732491	-0.43557604116920606	0.0	1.0310125597989612	-0.5089329081329266	0.0	1.0463096780737469	-0.5762508632630481	0.0
69	2.3146496815286626	0.9862851687537652	-0.6011500135834835	0.0	0.9600974157651846	-0.6056521241237134	0.0	0.9836483403450632	-0.7185375237541781	0.0	0.985250936775318	-0.8307139156040051	0.0	0.9917033415462166	-0.8485569596598446	0.0	0.9779186225375379	-0.8481104470327234	0.0	0.9832286103022058	-0.8410846311165943	0.0	1.0127463036902402	-0.602689388772546	0.0	1.0221147404977242	-0.7181957685829377	0.0	1.0328473319230256	-0.8267529003857874	0.0	1.0333317683996692	-0.8474664692684758	0.0	1.0482644334269853	-0.8417111176734703	0.0	1.0305783993834468	-0.8364851524979698	0.0	0.982335811971804	-0.4403627902350142	0.0	0.9802230654731482	-0.3671068380765507	0.0	0.9836694439369611	-0.4088280155120231	0.0	0.9388755031320485	-0.462636852966432	0.0	0.9359009687882655	-0.5352393297236593	0.0	0.9230824689873545	-0.6042582481163918	0.0	1.025212300620017	-0.4604416054161891	0.0	1.0401142120961158	-0.5345907030798548	0.0	1.0612869543626218	-0.6018644210995758	0.0
